<mxfile host="app.diagrams.net" modified="2022-10-05T19:44:43.826Z" agent="5.0 (Windows NT 10.0; Win64; x64) AppleWebKit/537.36 (KHTML, like Gecko) Chrome/106.0.0.0 Safari/537.36" etag="yWJXszrQ8fP1a8X2zRHg" version="20.4.0" type="github">
  <diagram id="Md0Owi_MNy8eLnDqGMcD" name="Страница 1">
    <mxGraphModel dx="1247" dy="711" grid="1" gridSize="10" guides="1" tooltips="1" connect="1" arrows="1" fold="1" page="1" pageScale="1" pageWidth="827" pageHeight="1169" math="0" shadow="0">
      <root>
        <mxCell id="0" />
        <mxCell id="1" parent="0" />
        <mxCell id="txCtJSXHk-9zI3M3y2x9-1" value="&amp;lt;&amp;lt; Smartphone &amp;gt;&amp;gt;" style="verticalAlign=top;align=center;spacingTop=8;spacingLeft=2;spacingRight=12;shape=cube;size=10;direction=south;fontStyle=4;html=1;" parent="1" vertex="1">
          <mxGeometry x="24" y="200" width="260" height="220" as="geometry" />
        </mxCell>
        <mxCell id="txCtJSXHk-9zI3M3y2x9-2" value="&amp;lt;&amp;lt; OS Android &amp;gt;&amp;gt;" style="verticalAlign=top;align=center;spacingTop=8;spacingLeft=2;spacingRight=12;shape=cube;size=10;direction=south;fontStyle=4;html=1;" parent="1" vertex="1">
          <mxGeometry x="54" y="250" width="190" height="130" as="geometry" />
        </mxCell>
        <mxCell id="txCtJSXHk-9zI3M3y2x9-3" value="*.apk&#xa;(Android Studio)" style="shape=module;align=left;spacingLeft=20;align=center;verticalAlign=top;" parent="1" vertex="1">
          <mxGeometry x="84" y="295" width="120" height="55" as="geometry" />
        </mxCell>
        <mxCell id="txCtJSXHk-9zI3M3y2x9-6" value="" style="endArrow=none;html=1;rounded=0;entryX=0;entryY=0;entryDx=220;entryDy=135;entryPerimeter=0;" parent="1" target="txCtJSXHk-9zI3M3y2x9-1" edge="1">
          <mxGeometry width="50" height="50" relative="1" as="geometry">
            <mxPoint x="149" y="460" as="sourcePoint" />
            <mxPoint x="154" y="480" as="targetPoint" />
          </mxGeometry>
        </mxCell>
        <mxCell id="txCtJSXHk-9zI3M3y2x9-7" value="" style="ellipse;whiteSpace=wrap;html=1;" parent="1" vertex="1">
          <mxGeometry x="129" y="460" width="40" height="40" as="geometry" />
        </mxCell>
        <mxCell id="txCtJSXHk-9zI3M3y2x9-8" value="Touchscreen" style="text;html=1;align=center;verticalAlign=middle;resizable=0;points=[];autosize=1;strokeColor=none;fillColor=none;" parent="1" vertex="1">
          <mxGeometry x="104" y="500" width="90" height="30" as="geometry" />
        </mxCell>
        <mxCell id="txCtJSXHk-9zI3M3y2x9-9" value="" style="endArrow=none;html=1;rounded=0;exitX=0;exitY=0;exitDx=105;exitDy=0;exitPerimeter=0;entryX=0.443;entryY=0.997;entryDx=0;entryDy=0;entryPerimeter=0;" parent="1" source="txCtJSXHk-9zI3M3y2x9-1" target="txCtJSXHk-9zI3M3y2x9-10" edge="1">
          <mxGeometry width="50" height="50" relative="1" as="geometry">
            <mxPoint x="454" y="280" as="sourcePoint" />
            <mxPoint x="334" y="305" as="targetPoint" />
          </mxGeometry>
        </mxCell>
        <mxCell id="txCtJSXHk-9zI3M3y2x9-10" value="&amp;lt;&amp;lt; Server 1 &amp;gt;&amp;gt;" style="verticalAlign=top;align=center;spacingTop=8;spacingLeft=2;spacingRight=12;shape=cube;size=10;direction=south;fontStyle=4;html=1;" parent="1" vertex="1">
          <mxGeometry x="340" y="190" width="266" height="260" as="geometry" />
        </mxCell>
        <mxCell id="txCtJSXHk-9zI3M3y2x9-11" value="&amp;lt;&amp;lt; OS Linux &amp;gt;&amp;gt;" style="verticalAlign=top;align=center;spacingTop=8;spacingLeft=2;spacingRight=12;shape=cube;size=10;direction=south;fontStyle=4;html=1;" parent="1" vertex="1">
          <mxGeometry x="366" y="235" width="210" height="195" as="geometry" />
        </mxCell>
        <mxCell id="txCtJSXHk-9zI3M3y2x9-14" value="&amp;lt;&amp;lt; Application Server &lt;br&gt;Apache Tomcat &amp;gt;&amp;gt;" style="verticalAlign=top;align=center;spacingTop=8;spacingLeft=2;spacingRight=12;shape=cube;size=10;direction=south;fontStyle=4;html=1;" parent="1" vertex="1">
          <mxGeometry x="376" y="280" width="180" height="130" as="geometry" />
        </mxCell>
        <mxCell id="txCtJSXHk-9zI3M3y2x9-13" value="*.jar&#xa;(IntelliJ Idea)" style="shape=module;align=left;spacingLeft=20;align=center;verticalAlign=top;" parent="1" vertex="1">
          <mxGeometry x="396" y="340" width="120" height="55" as="geometry" />
        </mxCell>
        <mxCell id="txCtJSXHk-9zI3M3y2x9-16" value="&amp;lt;&amp;lt; Server 2 &amp;gt;&amp;gt;" style="verticalAlign=top;align=center;spacingTop=8;spacingLeft=2;spacingRight=12;shape=cube;size=10;direction=south;fontStyle=4;html=1;" parent="1" vertex="1">
          <mxGeometry x="670" y="190" width="266" height="260" as="geometry" />
        </mxCell>
        <mxCell id="txCtJSXHk-9zI3M3y2x9-12" value="&amp;lt;&amp;lt; OS Linux &amp;gt;&amp;gt;" style="verticalAlign=top;align=center;spacingTop=8;spacingLeft=2;spacingRight=12;shape=cube;size=10;direction=south;fontStyle=4;html=1;" parent="1" vertex="1">
          <mxGeometry x="698" y="235" width="210" height="195" as="geometry" />
        </mxCell>
        <mxCell id="txCtJSXHk-9zI3M3y2x9-15" value="&amp;lt;&amp;lt; Database Server Oracle&amp;nbsp;&amp;gt;&amp;gt;" style="verticalAlign=top;align=center;spacingTop=8;spacingLeft=2;spacingRight=12;shape=cube;size=10;direction=south;fontStyle=4;html=1;" parent="1" vertex="1">
          <mxGeometry x="713" y="280" width="180" height="130" as="geometry" />
        </mxCell>
        <mxCell id="txCtJSXHk-9zI3M3y2x9-17" value="" style="endArrow=none;dashed=1;html=1;dashPattern=1 3;strokeWidth=2;rounded=0;" parent="1" edge="1">
          <mxGeometry width="50" height="50" relative="1" as="geometry">
            <mxPoint x="310" y="540" as="sourcePoint" />
            <mxPoint x="310" y="100" as="targetPoint" />
          </mxGeometry>
        </mxCell>
        <mxCell id="txCtJSXHk-9zI3M3y2x9-18" value="" style="endArrow=none;dashed=1;html=1;dashPattern=1 3;strokeWidth=2;rounded=0;" parent="1" edge="1">
          <mxGeometry width="50" height="50" relative="1" as="geometry">
            <mxPoint x="640" y="540" as="sourcePoint" />
            <mxPoint x="640" y="100" as="targetPoint" />
          </mxGeometry>
        </mxCell>
        <mxCell id="txCtJSXHk-9zI3M3y2x9-19" value="" style="endArrow=none;html=1;rounded=0;entryX=0;entryY=0;entryDx=135;entryDy=266;entryPerimeter=0;exitX=0.52;exitY=-0.001;exitDx=0;exitDy=0;exitPerimeter=0;" parent="1" source="txCtJSXHk-9zI3M3y2x9-10" target="txCtJSXHk-9zI3M3y2x9-16" edge="1">
          <mxGeometry width="50" height="50" relative="1" as="geometry">
            <mxPoint x="610" y="325" as="sourcePoint" />
            <mxPoint x="670" y="530" as="targetPoint" />
          </mxGeometry>
        </mxCell>
        <mxCell id="txCtJSXHk-9zI3M3y2x9-20" value="Relation Database" style="shape=cylinder3;whiteSpace=wrap;html=1;boundedLbl=1;backgroundOutline=1;size=15;" parent="1" vertex="1">
          <mxGeometry x="730" y="320" width="140" height="75" as="geometry" />
        </mxCell>
      </root>
    </mxGraphModel>
  </diagram>
</mxfile>
